<?xml version="1.0" standalone="no"?>
<!DOCTYPE svg PUBLIC "-//W3C//DTD SVG 20010904//EN"
 "http://www.w3.org/TR/2001/REC-SVG-20010904/DTD/svg10.dtd">
<svg version="1.0" xmlns="http://www.w3.org/2000/svg"
 width="300.000000pt" height="281.000000pt" viewBox="0 0 300.000000 281.000000"
 preserveAspectRatio="xMidYMid meet">
<metadata>
Created by potrace 1.10, written by Peter Selinger 2001-2011
</metadata>
<g transform="translate(0.000000,281.000000) scale(0.100000,-0.100000)"
fill="#000000" stroke="none">
<path d="M573 2776 l-28 -24 -3 -906 c-2 -711 -5 -906 -15 -906 -6 0 -35 -11
-64 -24 -99 -47 -179 -156 -190 -261 l-6 -53 -48 -4 c-64 -6 -135 -51 -174
-108 -28 -42 -30 -51 -30 -136 0 -62 4 -96 14 -107 12 -16 127 -17 1482 -17
1649 0 1494 -8 1478 78 -10 49 -47 105 -82 123 -12 7 -23 13 -25 14 -1 1 6 17
15 36 28 54 30 181 3 251 -28 75 -96 150 -168 185 -49 24 -69 28 -142 28 -47
0 -96 -4 -110 -8 l-25 -8 3 906 2 906 -29 30 -29 29 -901 0 -900 0 -28 -24z
m1799 -48 c4 -2 8 -82 9 -178 l1 -175 -881 -3 -881 -2 0 179 c0 111 4 181 10
183 12 4 1731 0 1742 -4z m11 -1125 l-3 -718 -24 -20 c-37 -31 -85 -104 -96
-147 -10 -34 -14 -38 -42 -38 -55 0 -109 -23 -158 -67 l-48 -43 -530 -3 -529
-2 -6 71 c-6 87 -36 154 -95 212 -47 47 -126 89 -191 100 l-41 7 -3 683 -2
682 885 0 885 0 -2 -717z m-1648 -744 c139 -69 193 -241 121 -380 -29 -56 -28
-60 25 -88 31 -17 79 -72 79 -92 0 -5 -200 -9 -444 -9 l-444 0 -7 29 c-25 113
87 232 205 218 26 -3 52 -1 57 4 6 6 8 30 5 54 -13 117 78 247 199 284 53 16
151 7 204 -20z m1947 11 c151 -56 223 -239 150 -382 -15 -31 -26 -60 -24 -66
2 -6 22 -20 46 -31 28 -14 50 -35 65 -61 l22 -40 -577 0 -577 0 6 35 c8 47 39
89 83 110 33 16 57 16 128 3 20 -3 23 1 57 75 31 70 83 102 167 103 l65 1 21
64 c26 79 54 120 110 158 78 54 169 65 258 31z m-684 -340 c-2 -11 -21 -17
-63 -21 -68 -6 -108 -24 -147 -66 -31 -33 -58 -91 -58 -128 l0 -25 -353 0
-354 0 -13 39 c-12 37 -55 91 -86 109 -14 8 -14 12 0 43 8 19 17 41 19 49 4
13 72 15 531 15 463 0 526 -2 524 -15z"/>
<path d="M1280 2550 c0 -80 4 -130 10 -130 6 0 10 50 10 130 0 80 -4 130 -10
130 -6 0 -10 -50 -10 -130z"/>
<path d="M1703 2669 c-77 -22 -109 -129 -58 -195 79 -103 242 -31 220 97 -8
44 -55 99 -85 99 -10 0 -24 2 -32 4 -7 2 -27 0 -45 -5z m98 -58 c20 -20 29
-39 29 -61 0 -37 -47 -90 -79 -90 -66 0 -110 56 -91 116 22 64 93 82 141 35z"/>
<path d="M2114 2667 c-3 -8 -4 -36 -2 -63 l3 -49 100 0 100 0 0 60 0 60 -98 3
c-77 2 -99 0 -103 -11z m176 -52 l0 -35 -75 0 -75 0 0 35 0 35 75 0 75 0 0
-35z"/>
<path d="M1450 2622 c-6 -2 -8 -8 -4 -13 8 -14 157 -12 152 3 -4 10 -122 18
-148 10z"/>
<path d="M1884 2621 c-13 -13 17 -21 82 -21 52 0 74 4 72 11 -4 11 -144 20
-154 10z"/>
<path d="M740 2490 l0 -70 203 2 202 3 0 65 0 65 -202 3 -203 2 0 -70z m380
25 c0 -13 -27 -15 -180 -15 -153 0 -180 2 -180 15 0 13 27 15 180 15 153 0
180 -2 180 -15z m0 -50 c0 -13 -27 -15 -180 -15 -153 0 -180 2 -180 15 0 13
27 15 180 15 153 0 180 -2 180 -15z"/>
<path d="M1450 2550 c0 -6 32 -10 75 -10 43 0 75 4 75 10 0 6 -32 10 -75 10
-43 0 -75 -4 -75 -10z"/>
<path d="M1890 2550 c0 -6 32 -10 75 -10 43 0 75 4 75 10 0 6 -32 10 -75 10
-43 0 -75 -4 -75 -10z"/>
<path d="M1447 2494 c-16 -16 10 -24 79 -24 59 0 74 3 74 15 0 12 -15 15 -73
15 -41 0 -77 -3 -80 -6z"/>
<path d="M1885 2490 c-10 -16 17 -21 85 -18 40 2 65 8 68 16 5 15 -143 17
-153 2z"/>
<path d="M1365 2245 c-454 -85 -730 -555 -581 -987 41 -117 92 -196 190 -293
104 -103 199 -159 332 -196 111 -31 277 -31 388 0 248 68 442 253 527 499 10
29 24 97 30 151 62 493 -394 918 -886 826z m267 -59 c40 -8 93 -22 118 -32
185 -73 354 -249 410 -427 32 -103 43 -183 37 -265 -22 -297 -210 -536 -495
-630 -66 -21 -95 -25 -202 -25 -108 0 -136 4 -205 26 -115 38 -198 90 -291
183 -135 134 -198 289 -198 484 0 195 63 350 198 485 176 177 392 246 628 201z"/>
<path d="M1328 2076 c-336 -99 -515 -467 -386 -796 63 -162 206 -297 369 -351
106 -34 272 -34 377 0 177 58 320 201 383 381 34 98 38 242 9 347 -71 265
-308 444 -584 442 -64 0 -114 -7 -168 -23z m287 -11 c110 -23 209 -77 291
-159 82 -82 136 -181 159 -291 19 -89 19 -124 0 -222 -22 -116 -74 -213 -159
-298 -120 -118 -241 -168 -411 -167 -165 0 -288 53 -406 172 -87 88 -135 183
-156 308 -14 83 -14 101 0 184 22 129 70 223 161 314 142 141 330 199 521 159z"/>
<path d="M1410 2000 c-186 -34 -340 -175 -398 -364 -21 -73 -19 -216 6 -288
62 -185 218 -317 411 -349 149 -25 313 31 427 145 264 265 166 702 -188 834
-65 24 -190 35 -258 22z m285 -99 c60 -30 96 -55 130 -93 77 -85 125 -208 125
-318 0 -32 -4 -39 -25 -44 -14 -4 -50 -29 -80 -56 -30 -27 -66 -52 -80 -56
-45 -11 -93 5 -134 45 -62 60 -81 71 -133 71 -43 0 -53 -5 -109 -55 -95 -85
-144 -86 -234 -5 -30 27 -66 52 -80 56 -22 5 -25 11 -25 53 0 111 60 250 140
325 53 50 151 103 214 116 22 5 79 7 124 5 73 -4 95 -10 167 -44z m-601 -506
c17 -13 17 -18 6 -45 -12 -28 -11 -34 9 -61 13 -17 20 -33 18 -36 -11 -10 -30
11 -53 61 -38 81 -29 118 20 81z m852 -27 c-4 -23 -9 -44 -11 -46 -8 -8 -23 9
-30 35 -5 20 -2 31 11 40 30 22 37 15 30 -29z m-376 -25 c14 -9 32 -24 40 -33
39 -41 74 -60 112 -60 33 0 47 7 92 50 50 48 76 61 76 41 0 -6 -21 -30 -47
-55 -88 -83 -151 -85 -237 -6 -85 76 -131 76 -216 -4 -78 -73 -138 -73 -220 1
-43 39 -64 73 -44 73 3 0 31 -22 61 -50 45 -41 61 -50 92 -50 34 0 72 17 96
44 6 6 25 23 43 39 40 32 112 37 152 10z m340 -57 c0 -21 -26 -43 -37 -32 -4
4 28 55 35 56 1 0 2 -11 2 -24z m-363 -37 c15 -5 46 -28 68 -49 73 -71 129
-74 198 -9 22 22 44 39 49 39 18 0 6 -20 -42 -64 -44 -41 -54 -46 -95 -46 -56
0 -76 10 -137 66 -40 37 -54 44 -88 44 -34 0 -48 -7 -88 -44 -61 -56 -81 -66
-137 -66 -41 0 -51 5 -95 46 -28 26 -50 51 -50 55 0 19 25 7 61 -30 64 -65
121 -62 194 9 59 57 104 71 162 49z m51 -141 c26 -24 49 -43 51 -45 1 -1 0 -7
-4 -13 -4 -7 -21 2 -46 25 -74 67 -124 67 -190 4 -23 -22 -46 -36 -51 -33 -7
4 10 27 40 56 47 45 54 48 101 48 46 0 56 -4 99 -42z m-63 -30 c14 -6 25 -17
25 -23 0 -17 -73 -27 -105 -15 -23 9 -24 12 -12 24 11 12 32 20 59 25 4 0 19
-4 33 -11z"/>
<path d="M1264 1725 c-10 -25 4 -45 30 -45 27 0 42 26 25 46 -15 19 -48 18
-55 -1z"/>
<path d="M1664 1725 c-10 -25 4 -45 30 -45 27 0 42 26 25 46 -15 19 -48 18
-55 -1z"/>
<path d="M1281 1616 c-13 -16 -4 -25 49 -48 97 -44 218 -46 315 -5 61 25 69
32 62 51 -5 13 -13 12 -54 -9 -96 -50 -240 -48 -329 4 -26 16 -35 17 -43 7z"/>
<path d="M2175 861 c-4 -21 -12 -31 -25 -31 -31 0 -33 -18 -3 -22 16 -2 29 -9
29 -15 1 -7 2 -20 3 -29 2 -25 21 -5 21 22 0 17 5 24 20 24 11 0 20 5 20 10 0
6 -9 10 -20 10 -12 0 -20 7 -20 18 0 9 -4 23 -9 31 -7 10 -11 5 -16 -18z"/>
<path d="M533 793 c-18 -9 -33 -23 -33 -30 0 -14 26 -18 34 -4 3 4 25 14 49
20 123 35 252 -90 220 -212 -13 -46 -8 -64 12 -47 20 17 28 90 16 136 -14 51
-73 120 -118 139 -46 19 -139 18 -180 -2z"/>
<path d="M2491 792 c-19 -9 -36 -23 -39 -29 -4 -15 34 -18 43 -3 13 20 83 31
127 19 98 -26 144 -93 135 -196 -5 -67 6 -91 23 -48 32 84 -4 188 -84 243 -42
28 -56 32 -110 32 -36 -1 -75 -8 -95 -18z"/>
<path d="M2155 505 c-51 -50 -15 -135 58 -135 44 0 77 34 77 81 0 72 -84 106
-135 54z m95 -15 c11 -11 20 -29 20 -40 0 -24 -34 -60 -57 -60 -46 0 -69 66
-36 102 21 24 48 23 73 -2z"/>
<path d="M2565 1390 c-5 -21 -13 -30 -26 -30 -27 0 -24 -18 4 -22 12 -2 23 -9
23 -15 1 -7 2 -20 3 -29 2 -25 21 -5 21 22 0 17 5 24 20 24 11 0 20 5 20 10 0
6 -9 10 -20 10 -15 0 -20 7 -20 24 0 37 -17 41 -25 6z"/>
<path d="M200 1276 c0 -17 -7 -26 -25 -30 -29 -7 -24 -26 6 -26 14 0 19 -7 19
-25 0 -14 5 -25 10 -25 6 0 10 11 10 25 0 18 5 25 19 25 30 0 35 19 6 26 -18
4 -25 13 -25 30 0 13 -4 24 -10 24 -5 0 -10 -11 -10 -24z"/>
<path d="M355 1258 c-47 -25 -59 -74 -29 -116 22 -32 57 -43 94 -31 56 20 69
92 24 134 -29 27 -57 31 -89 13z m82 -44 c15 -24 15 -29 2 -53 -11 -20 -22
-26 -49 -26 -27 0 -38 6 -49 26 -13 24 -13 29 2 53 12 18 26 26 47 26 21 0 35
-8 47 -26z"/>
<path d="M2576 1189 c-70 -55 -38 -178 51 -195 69 -13 133 42 133 115 0 24 -9
42 -34 67 -29 29 -41 34 -79 34 -30 0 -53 -7 -71 -21z m116 -10 c25 -13 50
-72 41 -96 -19 -55 -69 -79 -118 -59 -62 26 -74 89 -26 137 31 31 67 37 103
18z"/>
<path d="M204 1050 c-61 -24 -85 -121 -44 -173 46 -58 124 -56 175 5 72 85
-26 211 -131 168z m103 -42 c31 -34 36 -63 18 -97 -30 -59 -89 -68 -136 -22
-37 38 -39 82 -4 116 32 33 93 34 122 3z"/>
<path d="M582 170 c3 -20 6 -21 913 -20 501 0 913 0 918 0 4 0 7 9 7 20 0 20
-7 20 -921 20 -919 0 -920 0 -917 -20z"/>
<path d="M722 90 c3 -21 6 -21 776 -21 425 0 777 3 782 6 5 3 7 12 3 20 -4 13
-109 15 -785 15 -779 0 -779 0 -776 -20z"/>
<path d="M863 18 c6 -19 1268 -19 1275 0 3 9 -129 12 -638 12 -509 0 -641 -3
-637 -12z"/>
</g>
</svg>
